<svg xmlns="http://www.w3.org/2000/svg" width="157" height="50"><path fill="#D81921" fill-rule="evenodd" d="M109.710843,48.8654618 L81.3373494,-7.10542736e-15 L52.9638554,48.8654618 L109.710843,48.8654618 Z M45.3975904,48.8654618 L45.3975904,4.41365462 L0,4.41365462 L0,48.8654618 L45.3975904,48.8654618 Z M134.301205,49.811245 C140.606426,49.811245 145.965863,47.6044177 150.379518,43.1907631 C154.793173,38.7771084 157,33.4176707 157,27.1124498 C157,20.8072289 154.793173,15.4477912 150.379518,11.0341365 C145.965863,6.62048193 140.606426,4.41365462 134.301205,4.41365462 C127.995984,4.41365462 122.636546,6.62048193 118.222892,11.0341365 C113.809237,15.4477912 111.60241,20.8072289 111.60241,27.1124498 C111.60241,33.4176707 113.809237,38.7771084 118.222892,43.1907631 C122.636546,47.6044177 127.995984,49.811245 134.301205,49.811245 Z M13.5562249,38.4618474 L11.3493976,38.4618474 L11.3493976,15.7630522 L13.5562249,15.7630522 L13.5562249,34.0481928 L22.6987952,18.2851406 L31.8413655,34.0481928 L31.8413655,15.7630522 L34.0481928,15.7630522 L34.0481928,38.4618474 L31.8413655,38.4618474 L22.6987952,22.6987952 L13.5562249,38.4618474 Z M134.301205,38.4618474 C131.148594,38.4618474 128.468876,37.3584337 126.262048,35.1516064 C124.055221,32.9447791 122.951807,30.2650602 122.951807,27.1124498 C122.951807,23.9598394 124.055221,21.2801205 126.262048,19.0732932 C128.468876,16.8664659 131.148594,15.7630522 134.301205,15.7630522 C138.294511,15.7630522 141.447122,17.4444444 143.759036,20.8072289 L141.552209,21.753012 C139.870817,19.2309237 137.453815,17.9698795 134.301205,17.9698795 C131.779116,17.9698795 129.624833,18.8631191 127.838353,20.6495984 C126.051874,22.4360776 125.158635,24.5903614 125.158635,27.1124498 C125.158635,29.6345382 126.051874,31.788822 127.838353,33.5753012 C129.624833,35.3617805 131.726573,36.2550201 134.143574,36.2550201 C136.560576,36.2550201 138.609772,35.519411 140.291165,34.0481928 C141.972557,32.5769746 143.023427,30.6854083 143.443775,28.373494 L134.301205,28.373494 L134.301205,26.1666667 L145.650602,26.1666667 L145.650602,27.1124498 C145.650602,30.2650602 144.547189,32.9447791 142.340361,35.1516064 C140.133534,37.3584337 137.453815,38.4618474 134.301205,38.4618474 Z M70.9337349,39.7228916 L68.0963855,39.7228916 L81.3373494,17.0240964 L94.5783133,39.7228916 L91.7409639,39.7228916 L88.5883534,34.0481928 L74.0863454,34.0481928 L70.9337349,39.7228916 Z M87.3273092,31.8413655 L81.3373494,21.437751 L75.3473896,31.8413655 L87.3273092,31.8413655 Z"/></svg>